<svg xmlns="http://www.w3.org/2000/svg" xmlns:xlink="http://www.w3.org/1999/xlink" fill="none" version="1.1" width="220" height="148" viewBox="0 0 220 148"><defs><clipPath id="master_svg0_275_27257"><rect x="90" y="84" width="40" height="40" rx="0"/></clipPath></defs><g style="mix-blend-mode:passthrough"><g style="mix-blend-mode:passthrough"><g style="mix-blend-mode:passthrough"><path d="M195,105L194.494,105Q194.396,105,194.299,104.980785Q194.202,104.96157,194.111,104.923879Q194.02,104.886188,193.938,104.83147Q193.857,104.776751,193.787,104.707107Q193.717,104.637463,193.663,104.55557Q193.608,104.473678,193.57,104.382683Q193.532,104.291689,193.513,104.19509Q193.494,104.0984914,193.494,104Q193.494,103.9015086,193.513,103.80491Q193.532,103.708311,193.57,103.617317Q193.608,103.526322,193.663,103.44443Q193.717,103.362537,193.787,103.292893Q193.857,103.223249,193.938,103.16853Q194.02,103.113812,194.111,103.076121Q194.202,103.03843,194.299,103.019215Q194.396,103,194.494,103L195,103L195,105ZM188.423,105L187.411,105Q187.312,105,187.216,104.980785Q187.119,104.96157,187.028,104.923879Q186.937,104.886188,186.855,104.83147Q186.773,104.776751,186.704,104.707107Q186.634,104.637463,186.579,104.55557Q186.525,104.473678,186.487,104.382683Q186.449,104.291689,186.43,104.19509Q186.411,104.0984914,186.411,104Q186.411,103.9015086,186.43,103.80491Q186.449,103.708311,186.487,103.617317Q186.525,103.526322,186.579,103.44443Q186.634,103.362537,186.704,103.292893Q186.773,103.223249,186.855,103.16853Q186.937,103.113812,187.028,103.076121Q187.119,103.03843,187.216,103.019215Q187.312,103,187.411,103L188.423,103Q188.521,103,188.618,103.019215Q188.714,103.03843,188.805,103.076121Q188.896,103.113812,188.978,103.16853Q189.06,103.223249,189.13,103.292893Q189.199,103.362537,189.254,103.44443Q189.309,103.526322,189.346,103.617317Q189.384,103.708311,189.403,103.80491Q189.423,103.9015086,189.423,104Q189.423,104.0984914,189.403,104.19509Q189.384,104.291689,189.346,104.382683Q189.309,104.473678,189.254,104.55557Q189.199,104.637463,189.13,104.707107Q189.06,104.776751,188.978,104.83147Q188.896,104.886188,188.805,104.923879Q188.714,104.96157,188.618,104.980785Q188.521,105,188.423,105ZM181.339,105L180.327,105Q180.229,105,180.132,104.980785Q180.036,104.96157,179.945,104.923879Q179.854,104.886188,179.772,104.83147Q179.69,104.776751,179.62,104.707107Q179.551,104.637463,179.496,104.55557Q179.441,104.473678,179.403,104.382683Q179.366,104.291689,179.347,104.19509Q179.327,104.0984914,179.327,104Q179.327,103.9015086,179.347,103.80491Q179.366,103.708311,179.403,103.617317Q179.441,103.526322,179.496,103.44443Q179.551,103.362537,179.62,103.292893Q179.69,103.223249,179.772,103.16853Q179.854,103.113812,179.945,103.076121Q180.036,103.03843,180.132,103.019215Q180.229,103,180.327,103L181.339,103Q181.438,103,181.534,103.019215Q181.631,103.03843,181.722,103.076121Q181.813,103.113812,181.895,103.16853Q181.977,103.223249,182.046,103.292893Q182.116,103.362537,182.171,103.44443Q182.225,103.526322,182.263,103.617317Q182.301,103.708311,182.32,103.80491Q182.339,103.9015086,182.339,104Q182.339,104.0984914,182.32,104.19509Q182.301,104.291689,182.263,104.382683Q182.225,104.473678,182.171,104.55557Q182.116,104.637463,182.046,104.707107Q181.977,104.776751,181.895,104.83147Q181.813,104.886188,181.722,104.923879Q181.631,104.96157,181.534,104.980785Q181.438,105,181.339,105ZM174.256,105L173.244,105Q173.146,105,173.049,104.980785Q172.952,104.96157,172.861,104.923879Q172.77,104.886188,172.688,104.83147Q172.607,104.776751,172.537,104.707107Q172.467,104.637463,172.413,104.55557Q172.358,104.473678,172.32,104.382683Q172.282,104.291689,172.263,104.19509Q172.244,104.0984914,172.244,104Q172.244,103.9015086,172.263,103.80491Q172.282,103.708311,172.32,103.617317Q172.358,103.526322,172.413,103.44443Q172.467,103.362537,172.537,103.292893Q172.607,103.223249,172.688,103.16853Q172.77,103.113812,172.861,103.076121Q172.952,103.03843,173.049,103.019215Q173.146,103,173.244,103L174.256,103Q174.354,103,174.451,103.019215Q174.548,103.03843,174.639,103.076121Q174.73,103.113812,174.811,103.16853Q174.893,103.223249,174.963,103.292893Q175.033,103.362537,175.087,103.44443Q175.142,103.526322,175.18,103.617317Q175.218,103.708311,175.237,103.80491Q175.256,103.9015086,175.256,104Q175.256,104.0984914,175.237,104.19509Q175.218,104.291689,175.18,104.382683Q175.142,104.473678,175.087,104.55557Q175.033,104.637463,174.963,104.707107Q174.893,104.776751,174.811,104.83147Q174.73,104.886188,174.639,104.923879Q174.548,104.96157,174.451,104.980785Q174.354,105,174.256,105ZM167.173,105L166.161,105Q166.062,105,165.966,104.980785Q165.869,104.96157,165.778,104.923879Q165.687,104.886188,165.605,104.83147Q165.523,104.776751,165.454,104.707107Q165.384,104.637463,165.329,104.55557Q165.275,104.473678,165.237,104.382683Q165.199,104.291689,165.18,104.19509Q165.161,104.0984914,165.161,104Q165.161,103.9015086,165.18,103.80491Q165.199,103.708311,165.237,103.617317Q165.275,103.526322,165.329,103.44443Q165.384,103.362537,165.454,103.292893Q165.523,103.223249,165.605,103.16853Q165.687,103.113812,165.778,103.076121Q165.869,103.03843,165.966,103.019215Q166.062,103,166.161,103L167.173,103Q167.271,103,167.368,103.019215Q167.464,103.03843,167.555,103.076121Q167.646,103.113812,167.728,103.16853Q167.81,103.223249,167.88,103.292893Q167.949,103.362537,168.004,103.44443Q168.059,103.526322,168.096,103.617317Q168.134,103.708311,168.153,103.80491Q168.173,103.9015086,168.173,104Q168.173,104.0984914,168.153,104.19509Q168.134,104.291689,168.096,104.382683Q168.059,104.473678,168.004,104.55557Q167.949,104.637463,167.88,104.707107Q167.81,104.776751,167.728,104.83147Q167.646,104.886188,167.555,104.923879Q167.464,104.96157,167.368,104.980785Q167.271,105,167.173,105ZM160.089,105L159.077,105Q158.979,105,158.882,104.980785Q158.786,104.96157,158.695,104.923879Q158.604,104.886188,158.522,104.83147Q158.44,104.776751,158.37,104.707107Q158.301,104.637463,158.246,104.55557Q158.191,104.473678,158.153,104.382683Q158.116,104.291689,158.097,104.19509Q158.077,104.0984914,158.077,104Q158.077,103.9015086,158.097,103.80491Q158.116,103.708311,158.153,103.617317Q158.191,103.526322,158.246,103.44443Q158.301,103.362537,158.37,103.292893Q158.44,103.223249,158.522,103.16853Q158.604,103.113812,158.695,103.076121Q158.786,103.03843,158.882,103.019215Q158.979,103,159.077,103L160.089,103Q160.188,103,160.284,103.019215Q160.381,103.03843,160.472,103.076121Q160.563,103.113812,160.645,103.16853Q160.727,103.223249,160.796,103.292893Q160.866,103.362537,160.921,103.44443Q160.975,103.526322,161.013,103.617317Q161.051,103.708311,161.07,103.80491Q161.089,103.9015086,161.089,104Q161.089,104.0984914,161.07,104.19509Q161.051,104.291689,161.013,104.382683Q160.975,104.473678,160.921,104.55557Q160.866,104.637463,160.796,104.707107Q160.727,104.776751,160.645,104.83147Q160.563,104.886188,160.472,104.923879Q160.381,104.96157,160.284,104.980785Q160.188,105,160.089,105ZM153.006,105L151.994,105Q151.89600000000002,105,151.799,104.980785Q151.702,104.96157,151.611,104.923879Q151.51999999999998,104.886188,151.438,104.83147Q151.357,104.776751,151.287,104.707107Q151.21699999999998,104.637463,151.163,104.55557Q151.108,104.473678,151.07,104.382683Q151.03199999999998,104.291689,151.013,104.19509Q150.994,104.0984914,150.994,104Q150.994,103.9015086,151.013,103.80491Q151.03199999999998,103.708311,151.07,103.617317Q151.108,103.526322,151.163,103.44443Q151.21699999999998,103.362537,151.287,103.292893Q151.357,103.223249,151.438,103.16853Q151.51999999999998,103.113812,151.611,103.076121Q151.702,103.03843,151.799,103.019215Q151.89600000000002,103,151.994,103L153.006,103Q153.104,103,153.201,103.019215Q153.298,103.03843,153.389,103.076121Q153.48,103.113812,153.561,103.16853Q153.643,103.223249,153.713,103.292893Q153.783,103.362537,153.837,103.44443Q153.892,103.526322,153.93,103.617317Q153.967,103.708311,153.987,103.80491Q154.006,103.9015086,154.006,104Q154.006,104.0984914,153.987,104.19509Q153.967,104.291689,153.93,104.382683Q153.892,104.473678,153.837,104.55557Q153.783,104.637463,153.713,104.707107Q153.643,104.776751,153.561,104.83147Q153.48,104.886188,153.389,104.923879Q153.298,104.96157,153.201,104.980785Q153.104,105,153.006,105ZM145.923,105L144.911,105Q144.812,105,144.716,104.980785Q144.619,104.96157,144.52800000000002,104.923879Q144.437,104.886188,144.35500000000002,104.83147Q144.273,104.776751,144.204,104.707107Q144.13400000000001,104.637463,144.079,104.55557Q144.025,104.473678,143.987,104.382683Q143.949,104.291689,143.93,104.19509Q143.911,104.0984914,143.911,104Q143.911,103.9015086,143.93,103.80491Q143.949,103.708311,143.987,103.617317Q144.025,103.526322,144.079,103.44443Q144.13400000000001,103.362537,144.204,103.292893Q144.273,103.223249,144.35500000000002,103.16853Q144.437,103.113812,144.52800000000002,103.076121Q144.619,103.03843,144.716,103.019215Q144.812,103,144.911,103L145.923,103Q146.02100000000002,103,146.118,103.019215Q146.214,103.03843,146.305,103.076121Q146.39600000000002,103.113812,146.478,103.16853Q146.56,103.223249,146.63,103.292893Q146.699,103.362537,146.75400000000002,103.44443Q146.809,103.526322,146.846,103.617317Q146.88400000000001,103.708311,146.90300000000002,103.80491Q146.923,103.9015086,146.923,104Q146.923,104.0984914,146.90300000000002,104.19509Q146.88400000000001,104.291689,146.846,104.382683Q146.809,104.473678,146.75400000000002,104.55557Q146.699,104.637463,146.63,104.707107Q146.56,104.776751,146.478,104.83147Q146.39600000000002,104.886188,146.305,104.923879Q146.214,104.96157,146.118,104.980785Q146.02100000000002,105,145.923,105ZM138.839,105L137.827,105Q137.72899999999998,105,137.632,104.980785Q137.536,104.96157,137.445,104.923879Q137.35399999999998,104.886188,137.272,104.83147Q137.19,104.776751,137.12,104.707107Q137.051,104.637463,136.99599999999998,104.55557Q136.941,104.473678,136.90300000000002,104.382683Q136.86599999999999,104.291689,136.84699999999998,104.19509Q136.827,104.0984914,136.827,104Q136.827,103.9015086,136.84699999999998,103.80491Q136.86599999999999,103.708311,136.90300000000002,103.617317Q136.941,103.526322,136.99599999999998,103.44443Q137.051,103.362537,137.12,103.292893Q137.19,103.223249,137.272,103.16853Q137.35399999999998,103.113812,137.445,103.076121Q137.536,103.03843,137.632,103.019215Q137.72899999999998,103,137.827,103L138.839,103Q138.938,103,139.034,103.019215Q139.131,103.03843,139.22199999999998,103.076121Q139.313,103.113812,139.39499999999998,103.16853Q139.477,103.223249,139.546,103.292893Q139.61599999999999,103.362537,139.671,103.44443Q139.725,103.526322,139.763,103.617317Q139.801,103.708311,139.82,103.80491Q139.839,103.9015086,139.839,104Q139.839,104.0984914,139.82,104.19509Q139.801,104.291689,139.763,104.382683Q139.725,104.473678,139.671,104.55557Q139.61599999999999,104.637463,139.546,104.707107Q139.477,104.776751,139.39499999999998,104.83147Q139.313,104.886188,139.22199999999998,104.923879Q139.131,104.96157,139.034,104.980785Q138.938,105,138.839,105ZM131.756,105L130.744,105Q130.64600000000002,105,130.549,104.980785Q130.452,104.96157,130.361,104.923879Q130.26999999999998,104.886188,130.188,104.83147Q130.107,104.776751,130.037,104.707107Q129.96699999999998,104.637463,129.913,104.55557Q129.858,104.473678,129.82,104.382683Q129.78199999999998,104.291689,129.763,104.19509Q129.744,104.0984914,129.744,104Q129.744,103.9015086,129.763,103.80491Q129.78199999999998,103.708311,129.82,103.617317Q129.858,103.526322,129.913,103.44443Q129.96699999999998,103.362537,130.037,103.292893Q130.107,103.223249,130.188,103.16853Q130.26999999999998,103.113812,130.361,103.076121Q130.452,103.03843,130.549,103.019215Q130.64600000000002,103,130.744,103L131.756,103Q131.85399999999998,103,131.951,103.019215Q132.048,103.03843,132.139,103.076121Q132.23000000000002,103.113812,132.312,103.16853Q132.393,103.223249,132.463,103.292893Q132.53300000000002,103.362537,132.587,103.44443Q132.642,103.526322,132.68,103.617317Q132.71800000000002,103.708311,132.737,103.80491Q132.756,103.9015086,132.756,104Q132.756,104.0984914,132.737,104.19509Q132.71800000000002,104.291689,132.68,104.382683Q132.642,104.473678,132.587,104.55557Q132.53300000000002,104.637463,132.463,104.707107Q132.393,104.776751,132.312,104.83147Q132.23000000000002,104.886188,132.139,104.923879Q132.048,104.96157,131.951,104.980785Q131.85399999999998,105,131.756,105ZM124.6726,105L123.6607,105Q123.5622,105,123.4656,104.980785Q123.369,104.96157,123.278,104.923879Q123.187,104.886188,123.1051,104.83147Q123.0233,104.776751,122.9536,104.707107Q122.884,104.637463,122.8292,104.55557Q122.7745,104.473678,122.7368,104.382683Q122.6991,104.291689,122.6799,104.19509Q122.6607,104.0984914,122.6607,104Q122.6607,103.9015086,122.6799,103.80491Q122.6991,103.708311,122.7368,103.617317Q122.7745,103.526322,122.8292,103.44443Q122.884,103.362537,122.9536,103.292893Q123.0233,103.223249,123.1051,103.16853Q123.187,103.113812,123.278,103.076121Q123.369,103.03843,123.4656,103.019215Q123.5622,103,123.6607,103L124.6726,103Q124.7711,103,124.8677,103.019215Q124.9643,103.03843,125.055,103.076121Q125.146,103.113812,125.228,103.16853Q125.31,103.223249,125.38,103.292893Q125.449,103.362537,125.504,103.44443Q125.559,103.526322,125.596,103.617317Q125.634,103.708311,125.653,103.80491Q125.673,103.9015086,125.673,104Q125.673,104.0984914,125.653,104.19509Q125.634,104.291689,125.596,104.382683Q125.559,104.473678,125.504,104.55557Q125.449,104.637463,125.38,104.707107Q125.31,104.776751,125.228,104.83147Q125.146,104.886188,125.055,104.923879Q124.9643,104.96157,124.8677,104.980785Q124.7711,105,124.6726,105ZM117.5893,105L116.5774,105Q116.4789,105,116.3823,104.980785Q116.2857,104.96157,116.1947,104.923879Q116.1037,104.886188,116.0218,104.83147Q115.9399,104.776751,115.8703,104.707107Q115.8006,104.637463,115.7459,104.55557Q115.6912,104.473678,115.6535,104.382683Q115.6158,104.291689,115.5966,104.19509Q115.5774,104.0984914,115.5774,104Q115.5774,103.9015086,115.5966,103.80491Q115.6158,103.708311,115.6535,103.617317Q115.6912,103.526322,115.7459,103.44443Q115.8006,103.362537,115.8703,103.292893Q115.9399,103.223249,116.0218,103.16853Q116.1037,103.113812,116.1947,103.076121Q116.2857,103.03843,116.3823,103.019215Q116.4789,103,116.5774,103L117.5893,103Q117.6878,103,117.7844,103.019215Q117.881,103.03843,117.972,103.076121Q118.063,103.113812,118.1449,103.16853Q118.2267,103.223249,118.2964,103.292893Q118.366,103.362537,118.4207,103.44443Q118.4755,103.526322,118.5132,103.617317Q118.5508,103.708311,118.5701,103.80491Q118.5893,103.9015086,118.5893,104Q118.5893,104.0984914,118.5701,104.19509Q118.5508,104.291689,118.5132,104.382683Q118.4755,104.473678,118.4207,104.55557Q118.366,104.637463,118.2964,104.707107Q118.2267,104.776751,118.1449,104.83147Q118.063,104.886188,117.972,104.923879Q117.881,104.96157,117.7844,104.980785Q117.6878,105,117.5893,105ZM110.506,105L109.494,105Q109.3955,105,109.299,104.980785Q109.2023,104.96157,109.1114,104.923879Q109.0204,104.886188,108.9385,104.83147Q108.8566,104.776751,108.7869,104.707107Q108.7173,104.637463,108.6626,104.55557Q108.6078,104.473678,108.5702,104.382683Q108.5325,104.291689,108.5133,104.19509Q108.494,104.0984914,108.494,104Q108.494,103.9015086,108.5133,103.80491Q108.5325,103.708311,108.5702,103.617317Q108.6078,103.526322,108.6626,103.44443Q108.7173,103.362537,108.7869,103.292893Q108.8566,103.223249,108.9385,103.16853Q109.0204,103.113812,109.1114,103.076121Q109.2023,103.03843,109.299,103.019215Q109.3955,103,109.494,103L110.506,103Q110.6044,103,110.701,103.019215Q110.7976,103.03843,110.8886,103.076121Q110.9796,103.113812,111.0615,103.16853Q111.1434,103.223249,111.2131,103.292893Q111.2827,103.362537,111.3374,103.44443Q111.3921,103.526322,111.4298,103.617317Q111.4675,103.708311,111.4867,103.80491Q111.506,103.9015086,111.506,104Q111.506,104.0984914,111.4867,104.19509Q111.4675,104.291689,111.4298,104.382683Q111.3922,104.473678,111.3374,104.55557Q111.2827,104.637463,111.2131,104.707107Q111.1434,104.776751,111.0615,104.83147Q110.9796,104.886188,110.8886,104.923879Q110.7976,104.96157,110.701,104.980785Q110.6044,105,110.506,105ZM103.4226,105L102.4107,105Q102.3122,105,102.2156,104.980785Q102.119,104.96157,102.028,104.923879Q101.937,104.886188,101.8551,104.83147Q101.7732,104.776751,101.7036,104.707107Q101.634,104.637463,101.5792,104.55557Q101.5245,104.473678,101.4868,104.382683Q101.4491,104.291689,101.4299,104.19509Q101.4107,104.0984914,101.4107,104Q101.4107,103.9015086,101.4299,103.80491Q101.4491,103.708311,101.4868,103.617317Q101.5245,103.526322,101.5792,103.44443Q101.634,103.362537,101.7036,103.292893Q101.7732,103.223249,101.8551,103.16853Q101.937,103.113812,102.028,103.076121Q102.119,103.03843,102.2156,103.019215Q102.3122,103,102.4107,103L103.4226,103Q103.5211,103,103.6177,103.019215Q103.7143,103.03843,103.8053,103.076121Q103.8963,103.113812,103.9782,103.16853Q104.0601,103.223249,104.1297,103.292893Q104.1994,103.362537,104.2541,103.44443Q104.3088,103.526322,104.3465,103.617317Q104.3842,103.708311,104.4034,103.80491Q104.4226,103.9015086,104.4226,104Q104.4226,104.0984914,104.4034,104.19509Q104.3842,104.291689,104.3465,104.382683Q104.3088,104.473678,104.2541,104.55557Q104.1994,104.637463,104.1297,104.707107Q104.0601,104.776751,103.9782,104.83147Q103.8963,104.886188,103.8053,104.923879Q103.7143,104.96157,103.6177,104.980785Q103.5211,105,103.4226,105ZM96.3393,105L95.3274,105Q95.2289,105,95.1323,104.980785Q95.0357,104.96157,94.9447,104.923879Q94.8537,104.886188,94.7718,104.83147Q94.6899,104.776751,94.6203,104.707107Q94.5506,104.637463,94.4959,104.55557Q94.4412,104.473678,94.4035,104.382683Q94.3658,104.291689,94.3466,104.19509Q94.3274,104.0984914,94.3274,104Q94.3274,103.9015086,94.3466,103.80491Q94.3658,103.708311,94.4035,103.617317Q94.4412,103.526322,94.4959,103.44443Q94.5506,103.362537,94.6203,103.292893Q94.6899,103.223249,94.7718,103.16853Q94.8537,103.113812,94.9447,103.076121Q95.0357,103.03843,95.1323,103.019215Q95.2289,103,95.3274,103L96.3393,103Q96.4378,103,96.5344,103.019215Q96.631,103.03843,96.722,103.076121Q96.813,103.113812,96.8949,103.16853Q96.9767,103.223249,97.0464,103.292893Q97.116,103.362537,97.1707,103.44443Q97.2255,103.526322,97.2632,103.617317Q97.3008,103.708311,97.3201,103.80491Q97.3393,103.9015086,97.3393,104Q97.3393,104.0984914,97.3201,104.19509Q97.3008,104.291689,97.2632,104.382683Q97.2255,104.473678,97.1707,104.55557Q97.116,104.637463,97.0464,104.707107Q96.9767,104.776751,96.8949,104.83147Q96.813,104.886188,96.722,104.923879Q96.631,104.96157,96.5344,104.980785Q96.4378,105,96.3393,105ZM89.256,105L88.244,105Q88.1456,105,88.049,104.980785Q87.9524,104.96157,87.8614,104.923879Q87.7704,104.886188,87.6885,104.83147Q87.6066,104.776751,87.5369,104.707107Q87.4673,104.637463,87.4126,104.55557Q87.3578,104.473678,87.3202,104.382683Q87.2825,104.291689,87.2633,104.19509Q87.244,104.0984914,87.244,104Q87.244,103.9015086,87.2633,103.80491Q87.2825,103.708311,87.3202,103.617317Q87.3578,103.526322,87.4126,103.44443Q87.4673,103.362537,87.5369,103.292893Q87.6066,103.223249,87.6885,103.16853Q87.7704,103.113812,87.8614,103.076121Q87.9524,103.03843,88.049,103.019215Q88.1456,103,88.244,103L89.256,103Q89.3544,103,89.451,103.019215Q89.5476,103.03843,89.6386,103.076121Q89.7296,103.113812,89.8115,103.16853Q89.8934,103.223249,89.9631,103.292893Q90.0327,103.362537,90.0874,103.44443Q90.1421,103.526322,90.1798,103.617317Q90.2175,103.708311,90.2367,103.80491Q90.256,103.9015086,90.256,104Q90.256,104.0984914,90.2367,104.19509Q90.2175,104.291689,90.1798,104.382683Q90.1421,104.473678,90.0874,104.55557Q90.0327,104.637463,89.9631,104.707107Q89.8934,104.776751,89.8115,104.83147Q89.7296,104.886188,89.6386,104.923879Q89.5476,104.96157,89.451,104.980785Q89.3544,105,89.256,105ZM82.1726,105L81.16069999999999,105Q81.06219999999999,105,80.9656,104.980785Q80.869,104.96157,80.77799999999999,104.923879Q80.687,104.886188,80.6051,104.83147Q80.5233,104.776751,80.4536,104.707107Q80.384,104.637463,80.3292,104.55557Q80.2745,104.473678,80.2368,104.382683Q80.1991,104.291689,80.1799,104.19509Q80.16069999999999,104.0984914,80.16069999999999,104Q80.16069999999999,103.9015086,80.1799,103.80491Q80.1991,103.708311,80.2368,103.617317Q80.2745,103.526322,80.3292,103.44443Q80.384,103.362537,80.4536,103.292893Q80.5233,103.223249,80.6051,103.16853Q80.687,103.113812,80.77799999999999,103.076121Q80.869,103.03843,80.9656,103.019215Q81.06219999999999,103,81.16069999999999,103L82.1726,103Q82.27109999999999,103,82.3677,103.019215Q82.46430000000001,103.03843,82.5553,103.076121Q82.6463,103.113812,82.7282,103.16853Q82.8101,103.223249,82.8797,103.292893Q82.9494,103.362537,83.0041,103.44443Q83.05879999999999,103.526322,83.09649999999999,103.617317Q83.13419999999999,103.708311,83.1534,103.80491Q83.1726,103.9015086,83.1726,104Q83.1726,104.0984914,83.1534,104.19509Q83.13419999999999,104.291689,83.09649999999999,104.382683Q83.05879999999999,104.473678,83.0041,104.55557Q82.9494,104.637463,82.8797,104.707107Q82.8101,104.776751,82.7282,104.83147Q82.6463,104.886188,82.5553,104.923879Q82.46430000000001,104.96157,82.3677,104.980785Q82.27109999999999,105,82.1726,105ZM75.08930000000001,105L74.0774,105Q73.97890000000001,105,73.8823,104.980785Q73.78569999999999,104.96157,73.6947,104.923879Q73.6037,104.886188,73.5218,104.83147Q73.4399,104.776751,73.3703,104.707107Q73.3006,104.637463,73.2459,104.55557Q73.19120000000001,104.473678,73.15350000000001,104.382683Q73.11580000000001,104.291689,73.0966,104.19509Q73.0774,104.0984914,73.0774,104Q73.0774,103.9015086,73.0966,103.80491Q73.11580000000001,103.708311,73.15350000000001,103.617317Q73.19120000000001,103.526322,73.2459,103.44443Q73.3006,103.362537,73.3703,103.292893Q73.4399,103.223249,73.5218,103.16853Q73.6037,103.113812,73.6947,103.076121Q73.78569999999999,103.03843,73.8823,103.019215Q73.97890000000001,103,74.0774,103L75.08930000000001,103Q75.18780000000001,103,75.2844,103.019215Q75.381,103.03843,75.47200000000001,103.076121Q75.563,103.113812,75.6449,103.16853Q75.7268,103.223249,75.7964,103.292893Q75.866,103.362537,75.9208,103.44443Q75.9755,103.526322,76.0132,103.617317Q76.0509,103.708311,76.0701,103.80491Q76.08930000000001,103.9015086,76.08930000000001,104Q76.08930000000001,104.0984914,76.0701,104.19509Q76.0509,104.291689,76.0132,104.382683Q75.9755,104.473678,75.9208,104.55557Q75.866,104.637463,75.7964,104.707107Q75.7268,104.776751,75.6449,104.83147Q75.563,104.886188,75.47200000000001,104.923879Q75.381,104.96157,75.2844,104.980785Q75.18780000000001,105,75.08930000000001,105ZM68.006,105L66.994,105Q66.8956,105,66.799,104.980785Q66.7024,104.96157,66.6114,104.923879Q66.5204,104.886188,66.4385,104.83147Q66.3566,104.776751,66.2869,104.707107Q66.2173,104.637463,66.1626,104.55557Q66.1079,104.473678,66.0702,104.382683Q66.0325,104.291689,66.0133,104.19509Q65.994,104.0984914,65.994,104Q65.994,103.9015086,66.0133,103.80491Q66.0325,103.708311,66.0702,103.617317Q66.1079,103.526322,66.1626,103.44443Q66.2173,103.362537,66.2869,103.292893Q66.3566,103.223249,66.4385,103.16853Q66.5204,103.113812,66.6114,103.076121Q66.7024,103.03843,66.799,103.019215Q66.8956,103,66.994,103L68.006,103Q68.1045,103,68.201,103.019215Q68.2976,103.03843,68.3886,103.076121Q68.4796,103.113812,68.5615,103.16853Q68.6434,103.223249,68.7131,103.292893Q68.7827,103.362537,68.8374,103.44443Q68.8921,103.526322,68.9298,103.617317Q68.9675,103.708311,68.9867,103.80491Q69.006,103.9015086,69.006,104Q69.006,104.0984914,68.9867,104.19509Q68.9675,104.291689,68.9298,104.382683Q68.8921,104.473678,68.8374,104.55557Q68.7827,104.637463,68.7131,104.707107Q68.6434,104.776751,68.5615,104.83147Q68.4796,104.886188,68.3886,104.923879Q68.2976,104.96157,68.201,104.980785Q68.1045,105,68.006,105ZM60.9226,105L59.9107,105Q59.8122,105,59.7156,104.980785Q59.619,104.96157,59.528,104.923879Q59.437,104.886188,59.3551,104.83147Q59.2733,104.776751,59.2036,104.707107Q59.134,104.637463,59.0792,104.55557Q59.0245,104.473678,58.9868,104.382683Q58.9491,104.291689,58.9299,104.19509Q58.9107,104.0984914,58.9107,104Q58.9107,103.9015086,58.9299,103.80491Q58.9491,103.708311,58.9868,103.617317Q59.0245,103.526322,59.0792,103.44443Q59.134,103.362537,59.2036,103.292893Q59.2733,103.223249,59.3551,103.16853Q59.437,103.113812,59.528,103.076121Q59.619,103.03843,59.7156,103.019215Q59.8122,103,59.9107,103L60.9226,103Q61.0211,103,61.1177,103.019215Q61.2143,103.03843,61.3053,103.076121Q61.3963,103.113812,61.4782,103.16853Q61.5601,103.223249,61.6297,103.292893Q61.6994,103.362537,61.7541,103.44443Q61.8088,103.526322,61.8465,103.617317Q61.8842,103.708311,61.9034,103.80491Q61.9226,103.9015086,61.9226,104Q61.9226,104.0984914,61.9034,104.19509Q61.8842,104.291689,61.8465,104.382683Q61.8088,104.473678,61.7541,104.55557Q61.6994,104.637463,61.6297,104.707107Q61.5601,104.776751,61.4782,104.83147Q61.3963,104.886188,61.3053,104.923879Q61.2143,104.96157,61.1177,104.980785Q61.0211,105,60.9226,105ZM53.8393,105L52.8274,105Q52.728899999999996,105,52.6323,104.980785Q52.5357,104.96157,52.4447,104.923879Q52.3537,104.886188,52.2718,104.83147Q52.1899,104.776751,52.1203,104.707107Q52.0506,104.637463,51.9959,104.55557Q51.941199999999995,104.473678,51.9035,104.382683Q51.8658,104.291689,51.846599999999995,104.19509Q51.8274,104.0984914,51.8274,104Q51.8274,103.9015086,51.846599999999995,103.80491Q51.8658,103.708311,51.9035,103.617317Q51.941199999999995,103.526322,51.9959,103.44443Q52.0506,103.362537,52.1203,103.292893Q52.1899,103.223249,52.2718,103.16853Q52.3537,103.113812,52.4447,103.076121Q52.5357,103.03843,52.6323,103.019215Q52.728899999999996,103,52.8274,103L53.8393,103Q53.937799999999996,103,54.034400000000005,103.019215Q54.131,103.03843,54.222,103.076121Q54.313,103.113812,54.3949,103.16853Q54.4768,103.223249,54.5464,103.292893Q54.616,103.362537,54.6708,103.44443Q54.7255,103.526322,54.7632,103.617317Q54.8009,103.708311,54.8201,103.80491Q54.8393,103.9015086,54.8393,104Q54.8393,104.0984914,54.8201,104.19509Q54.8009,104.291689,54.7632,104.382683Q54.7255,104.473678,54.6708,104.55557Q54.616,104.637463,54.5464,104.707107Q54.4768,104.776751,54.3949,104.83147Q54.313,104.886188,54.222,104.923879Q54.131,104.96157,54.034400000000005,104.980785Q53.937799999999996,105,53.8393,105ZM46.756,105L45.744,105Q45.6456,105,45.549,104.980785Q45.4524,104.96157,45.3614,104.923879Q45.270399999999995,104.886188,45.188500000000005,104.83147Q45.1066,104.776751,45.0369,104.707107Q44.9673,104.637463,44.9126,104.55557Q44.8579,104.473678,44.8202,104.382683Q44.7825,104.291689,44.7633,104.19509Q44.744,104.0984914,44.744,104Q44.744,103.9015086,44.7633,103.80491Q44.7825,103.708311,44.8202,103.617317Q44.8579,103.526322,44.9126,103.44443Q44.9673,103.362537,45.0369,103.292893Q45.1066,103.223249,45.188500000000005,103.16853Q45.270399999999995,103.113812,45.3614,103.076121Q45.4524,103.03843,45.549,103.019215Q45.6456,103,45.744,103L46.756,103Q46.8545,103,46.9511,103.019215Q47.0477,103.03843,47.1386,103.076121Q47.229600000000005,103.113812,47.311499999999995,103.16853Q47.3934,103.223249,47.4631,103.292893Q47.5327,103.362537,47.5874,103.44443Q47.6421,103.526322,47.6798,103.617317Q47.7175,103.708311,47.7367,103.80491Q47.756,103.9015086,47.756,104Q47.756,104.0984914,47.7368,104.19509Q47.7175,104.291689,47.6798,104.382683Q47.6422,104.473678,47.5874,104.55557Q47.5327,104.637463,47.4631,104.707107Q47.3934,104.776751,47.311499999999995,104.83147Q47.229600000000005,104.886188,47.1386,104.923879Q47.0477,104.96157,46.9511,104.980785Q46.8545,105,46.756,105ZM39.6726,105L38.6607,105Q38.562200000000004,105,38.4656,104.980785Q38.369,104.96157,38.278,104.923879Q38.187,104.886188,38.1051,104.83147Q38.0233,104.776751,37.9536,104.707107Q37.884,104.637463,37.8292,104.55557Q37.7745,104.473678,37.7368,104.382683Q37.6991,104.291689,37.6799,104.19509Q37.6607,104.0984914,37.6607,104Q37.6607,103.9015086,37.6799,103.80491Q37.6991,103.708311,37.7368,103.617317Q37.7745,103.526322,37.8292,103.44443Q37.884,103.362537,37.9536,103.292893Q38.0233,103.223249,38.1051,103.16853Q38.187,103.113812,38.278,103.076121Q38.369,103.03843,38.4656,103.019215Q38.562200000000004,103,38.6607,103L39.6726,103Q39.771100000000004,103,39.8677,103.019215Q39.9643,103.03843,40.0553,103.076121Q40.1463,103.113812,40.2282,103.16853Q40.3101,103.223249,40.3797,103.292893Q40.4494,103.362537,40.5041,103.44443Q40.5588,103.526322,40.5965,103.617317Q40.6342,103.708311,40.6534,103.80491Q40.6726,103.9015086,40.6726,104Q40.6726,104.0984914,40.6534,104.19509Q40.6342,104.291689,40.5965,104.382683Q40.5588,104.473678,40.5041,104.55557Q40.4494,104.637463,40.3797,104.707107Q40.3101,104.776751,40.2282,104.83147Q40.1463,104.886188,40.0553,104.923879Q39.9643,104.96157,39.8677,104.980785Q39.771100000000004,105,39.6726,105ZM32.58929,105L31.57739,105Q31.4789,105,31.3823,104.980785Q31.2857,104.96157,31.19471,104.923879Q31.10371,104.886188,31.021819999999998,104.83147Q30.93993,104.776751,30.87029,104.707107Q30.80064,104.637463,30.745919999999998,104.55557Q30.691200000000002,104.473678,30.65351,104.382683Q30.61582,104.291689,30.59661,104.19509Q30.57739,104.0984914,30.57739,104Q30.57739,103.9015086,30.59661,103.80491Q30.61582,103.708311,30.65351,103.617317Q30.691200000000002,103.526322,30.745919999999998,103.44443Q30.80064,103.362537,30.87029,103.292893Q30.93993,103.223249,31.021819999999998,103.16853Q31.10371,103.113812,31.19471,103.076121Q31.2857,103.03843,31.3823,103.019215Q31.4789,103,31.57739,103L32.58929,103Q32.68779,103,32.78438,103.019215Q32.88098,103.03843,32.97198,103.076121Q33.06297,103.113812,33.14486,103.16853Q33.22676,103.223249,33.2964,103.292893Q33.36604,103.362537,33.42076,103.44443Q33.47548,103.526322,33.51317,103.617317Q33.55086,103.708311,33.570080000000004,103.80491Q33.58929,103.9015086,33.58929,104Q33.58929,104.0984914,33.570080000000004,104.19509Q33.55086,104.291689,33.51317,104.382683Q33.47548,104.473678,33.42076,104.55557Q33.36604,104.637463,33.2964,104.707107Q33.22676,104.776751,33.14486,104.83147Q33.06297,104.886188,32.97198,104.923879Q32.88098,104.96157,32.78438,104.980785Q32.68779,105,32.58929,105ZM25.505966,105L25,105Q25,105,25,104.980785Q25,104.96157,25,104.923879Q25,104.886188,25,104.83147Q25,104.776751,25,104.707107Q25,104.637463,25,104.55557Q25,104.473678,25,104.382683Q25,104.291689,25,104.19509Q25,104.0984914,25,104Q25,103.9015086,25,103.80491Q25,103.708311,25,103.617317Q25,103.526322,25,103.44443Q25,103.362537,25,103.292893Q25,103.223249,25,103.16853Q25,103.113812,25,103.076121Q25,103.03843,25,103.019215Q25,103,25,103L25.505966,103Q25.604458,103,25.701056,103.019215Q25.797655,103.03843,25.88865,103.076121Q25.979644,103.113812,26.06154,103.16853Q26.14343,103.223249,26.213070000000002,103.292893Q26.28272,103.362537,26.33744,103.44443Q26.39215,103.526322,26.429850000000002,103.617317Q26.46754,103.708311,26.48675,103.80491Q26.50597,103.9015086,26.50597,104Q26.50597,104.0984914,26.48675,104.19509Q26.46754,104.291689,26.429850000000002,104.382683Q26.39215,104.473678,26.33744,104.55557Q26.28272,104.637463,26.213070000000002,104.707107Q26.14343,104.776751,26.06154,104.83147Q25.979644,104.886188,25.88865,104.923879Q25.797655,104.96157,25.701056,104.980785Q25.604458,105,25.505966,105ZM196,104Q196,104.0984914,195.981,104.19509Q195.962,104.291689,195.924,104.382683Q195.886,104.473678,195.831,104.55557Q195.777,104.637463,195.707,104.707107Q195.637,104.776751,195.556,104.83147Q195.474,104.886188,195.383,104.923879Q195.292,104.96157,195.195,104.980785Q195.098,105,195,105Q194.902,105,194.805,104.980785Q194.708,104.96157,194.617,104.923879Q194.526,104.886188,194.444,104.83147Q194.363,104.776751,194.293,104.707107Q194.223,104.637463,194.169,104.55557Q194.114,104.473678,194.076,104.382683Q194.038,104.291689,194.019,104.19509Q194,104.0984914,194,104Q194,103.9015086,194.019,103.80491Q194.038,103.708311,194.076,103.617317Q194.114,103.526322,194.169,103.44443Q194.223,103.362537,194.293,103.292893Q194.363,103.223249,194.444,103.16853Q194.526,103.113812,194.617,103.076121Q194.708,103.03843,194.805,103.019215Q194.902,103,195,103Q195.098,103,195.195,103.019215Q195.292,103.03843,195.383,103.076121Q195.474,103.113812,195.556,103.16853Q195.637,103.223249,195.707,103.292893Q195.777,103.362537,195.831,103.44443Q195.886,103.526322,195.924,103.617317Q195.962,103.708311,195.981,103.80491Q196,103.9015086,196,104ZM26,104Q26,104.0984914,25.980785,104.19509Q25.961570000000002,104.291689,25.923879,104.382683Q25.886188,104.473678,25.83147,104.55557Q25.776751,104.637463,25.707107,104.707107Q25.637463,104.776751,25.55557,104.83147Q25.473678,104.886188,25.382683,104.923879Q25.291689,104.96157,25.19509,104.980785Q25.0984914,105,25,105Q24.9015086,105,24.80491,104.980785Q24.708311,104.96157,24.617317,104.923879Q24.526322,104.886188,24.44443,104.83147Q24.362537,104.776751,24.292893,104.707107Q24.223249,104.637463,24.16853,104.55557Q24.113812,104.473678,24.076121,104.382683Q24.038429999999998,104.291689,24.019215,104.19509Q24,104.0984914,24,104Q24,103.9015086,24.019215,103.80491Q24.038429999999998,103.708311,24.076121,103.617317Q24.113812,103.526322,24.16853,103.44443Q24.223249,103.362537,24.292893,103.292893Q24.362537,103.223249,24.44443,103.16853Q24.526322,103.113812,24.617317,103.076121Q24.708311,103.03843,24.80491,103.019215Q24.9015086,103,25,103Q25.0984914,103,25.19509,103.019215Q25.291689,103.03843,25.382683,103.076121Q25.473678,103.113812,25.55557,103.16853Q25.637463,103.223249,25.707107,103.292893Q25.776751,103.362537,25.83147,103.44443Q25.886188,103.526322,25.923879,103.617317Q25.961570000000002,103.708311,25.980785,103.80491Q26,103.9015086,26,104Z" fill="#F64041" fill-opacity="1"/></g></g><g clip-path="url(#master_svg0_275_27257)"><g style="opacity:0;"><rect x="90" y="84" width="40" height="40" rx="0" fill="#FFFFFF" fill-opacity="1"/></g><g><ellipse cx="110.05008888244629" cy="104.00000953674316" rx="16.66666603088379" ry="16.66666603088379" fill="#F64041" fill-opacity="1"/></g><g><path d="M111.81662375,103.999993828125L115.63334375,100.16665382812499C116.13014375,99.682553828125,116.13014375,98.884093828125,115.63334375,98.399990828125C115.14524375,97.912567828125,114.35464375,97.912567828125,113.86662375,98.399990828125L109.99996375,102.233323828125L106.16662375,98.399990828125C105.67860375,97.912567828125,104.88799075,97.912567828125,104.39995975,98.399990828125C103.90313875,98.884093828125,103.90313875,99.682553828125,104.39995975,100.16665382812499L108.33329375,103.999993828125L104.49996075,107.833323828125C104.00313945,108.317423828125,104.00313945,109.115923828125,104.49996075,109.600023828125C104.73200775,109.837623828125,105.05114375,109.970123828125,105.38329375,109.966623828125C105.71507375,109.968223828125,106.03348375,109.83602382812501,106.26662375,109.600023828125L110.09996375,105.766663828125L113.91662375,109.600023828125C114.14974375,109.83602382812501,114.46814375,109.968223828125,114.79994375,109.966623828125C115.13284375,109.974123828125,115.45354375,109.841023828125,115.68324375,109.600023828125C116.18014375,109.115923828125,116.18014375,108.317423828125,115.68324375,107.833323828125L111.81662375,103.999993828125Z" fill="#FFFFFF" fill-opacity="1"/></g></g></g></svg>