<svg xmlns="http://www.w3.org/2000/svg" xmlns:xlink="http://www.w3.org/1999/xlink" fill="none" version="1.1" width="172" height="99" viewBox="0 0 172 99"><defs><clipPath id="master_svg0_275_7573"><rect x="66" y="59" width="40" height="40" rx="0"/></clipPath></defs><g style="mix-blend-mode:passthrough"><g style="mix-blend-mode:passthrough"><g style="mix-blend-mode:passthrough"><path d="M171,81L170.494,81Q170.396,81,170.299,80.980785Q170.202,80.96157,170.111,80.923879Q170.02,80.886188,169.938,80.83147Q169.857,80.776751,169.787,80.707107Q169.717,80.637463,169.663,80.55557Q169.608,80.473678,169.57,80.382683Q169.532,80.291689,169.513,80.19509Q169.494,80.0984914,169.494,80Q169.494,79.9015086,169.513,79.80491Q169.532,79.708311,169.57,79.617317Q169.608,79.526322,169.663,79.44443Q169.717,79.362537,169.787,79.292893Q169.857,79.223249,169.938,79.16853Q170.02,79.113812,170.111,79.076121Q170.202,79.03843,170.299,79.019215Q170.396,79,170.494,79L171,79L171,81ZM164.423,81L163.411,81Q163.312,81,163.216,80.980785Q163.119,80.96157,163.028,80.923879Q162.937,80.886188,162.855,80.83147Q162.773,80.776751,162.704,80.707107Q162.634,80.637463,162.579,80.55557Q162.525,80.473678,162.487,80.382683Q162.449,80.291689,162.43,80.19509Q162.411,80.0984914,162.411,80Q162.411,79.9015086,162.43,79.80491Q162.449,79.708311,162.487,79.617317Q162.525,79.526322,162.579,79.44443Q162.634,79.362537,162.704,79.292893Q162.773,79.223249,162.855,79.16853Q162.937,79.113812,163.028,79.076121Q163.119,79.03843,163.216,79.019215Q163.312,79,163.411,79L164.423,79Q164.521,79,164.618,79.019215Q164.714,79.03843,164.805,79.076121Q164.896,79.113812,164.978,79.16853Q165.06,79.223249,165.13,79.292893Q165.199,79.362537,165.254,79.44443Q165.309,79.526322,165.346,79.617317Q165.384,79.708311,165.403,79.80491Q165.423,79.9015086,165.423,80Q165.423,80.0984914,165.403,80.19509Q165.384,80.291689,165.346,80.382683Q165.309,80.473678,165.254,80.55557Q165.199,80.637463,165.13,80.707107Q165.06,80.776751,164.978,80.83147Q164.896,80.886188,164.805,80.923879Q164.714,80.96157,164.618,80.980785Q164.521,81,164.423,81ZM157.339,81L156.327,81Q156.229,81,156.132,80.980785Q156.036,80.96157,155.945,80.923879Q155.854,80.886188,155.772,80.83147Q155.69,80.776751,155.62,80.707107Q155.551,80.637463,155.496,80.55557Q155.441,80.473678,155.403,80.382683Q155.366,80.291689,155.347,80.19509Q155.327,80.0984914,155.327,80Q155.327,79.9015086,155.347,79.80491Q155.366,79.708311,155.403,79.617317Q155.441,79.526322,155.496,79.44443Q155.551,79.362537,155.62,79.292893Q155.69,79.223249,155.772,79.16853Q155.854,79.113812,155.945,79.076121Q156.036,79.03843,156.132,79.019215Q156.229,79,156.327,79L157.339,79Q157.438,79,157.534,79.019215Q157.631,79.03843,157.722,79.076121Q157.813,79.113812,157.895,79.16853Q157.977,79.223249,158.046,79.292893Q158.116,79.362537,158.171,79.44443Q158.225,79.526322,158.263,79.617317Q158.301,79.708311,158.32,79.80491Q158.339,79.9015086,158.339,80Q158.339,80.0984914,158.32,80.19509Q158.301,80.291689,158.263,80.382683Q158.225,80.473678,158.171,80.55557Q158.116,80.637463,158.046,80.707107Q157.977,80.776751,157.895,80.83147Q157.813,80.886188,157.722,80.923879Q157.631,80.96157,157.534,80.980785Q157.438,81,157.339,81ZM150.256,81L149.244,81Q149.146,81,149.049,80.980785Q148.952,80.96157,148.861,80.923879Q148.77,80.886188,148.688,80.83147Q148.607,80.776751,148.537,80.707107Q148.467,80.637463,148.413,80.55557Q148.358,80.473678,148.32,80.382683Q148.282,80.291689,148.263,80.19509Q148.244,80.0984914,148.244,80Q148.244,79.9015086,148.263,79.80491Q148.282,79.708311,148.32,79.617317Q148.358,79.526322,148.413,79.44443Q148.467,79.362537,148.537,79.292893Q148.607,79.223249,148.688,79.16853Q148.77,79.113812,148.861,79.076121Q148.952,79.03843,149.049,79.019215Q149.146,79,149.244,79L150.256,79Q150.354,79,150.451,79.019215Q150.548,79.03843,150.639,79.076121Q150.73,79.113812,150.811,79.16853Q150.893,79.223249,150.963,79.292893Q151.033,79.362537,151.087,79.44443Q151.142,79.526322,151.18,79.617317Q151.218,79.708311,151.237,79.80491Q151.256,79.9015086,151.256,80Q151.256,80.0984914,151.237,80.19509Q151.218,80.291689,151.18,80.382683Q151.142,80.473678,151.087,80.55557Q151.033,80.637463,150.963,80.707107Q150.893,80.776751,150.811,80.83147Q150.73,80.886188,150.639,80.923879Q150.548,80.96157,150.451,80.980785Q150.354,81,150.256,81ZM143.173,81L142.161,81Q142.062,81,141.966,80.980785Q141.869,80.96157,141.778,80.923879Q141.687,80.886188,141.605,80.83147Q141.523,80.776751,141.454,80.707107Q141.384,80.637463,141.329,80.55557Q141.275,80.473678,141.237,80.382683Q141.199,80.291689,141.18,80.19509Q141.161,80.0984914,141.161,80Q141.161,79.9015086,141.18,79.80491Q141.199,79.708311,141.237,79.617317Q141.275,79.526322,141.329,79.44443Q141.384,79.362537,141.454,79.292893Q141.523,79.223249,141.605,79.16853Q141.687,79.113812,141.778,79.076121Q141.869,79.03843,141.966,79.019215Q142.062,79,142.161,79L143.173,79Q143.271,79,143.368,79.019215Q143.464,79.03843,143.555,79.076121Q143.646,79.113812,143.728,79.16853Q143.81,79.223249,143.88,79.292893Q143.949,79.362537,144.004,79.44443Q144.059,79.526322,144.096,79.617317Q144.134,79.708311,144.153,79.80491Q144.173,79.9015086,144.173,80Q144.173,80.0984914,144.153,80.19509Q144.134,80.291689,144.096,80.382683Q144.059,80.473678,144.004,80.55557Q143.949,80.637463,143.88,80.707107Q143.81,80.776751,143.728,80.83147Q143.646,80.886188,143.555,80.923879Q143.464,80.96157,143.368,80.980785Q143.271,81,143.173,81ZM136.089,81L135.077,81Q134.979,81,134.882,80.980785Q134.786,80.96157,134.695,80.923879Q134.604,80.886188,134.522,80.83147Q134.44,80.776751,134.37,80.707107Q134.301,80.637463,134.246,80.55557Q134.191,80.473678,134.153,80.382683Q134.116,80.291689,134.097,80.19509Q134.077,80.0984914,134.077,80Q134.077,79.9015086,134.097,79.80491Q134.116,79.708311,134.153,79.617317Q134.191,79.526322,134.246,79.44443Q134.301,79.362537,134.37,79.292893Q134.44,79.223249,134.522,79.16853Q134.604,79.113812,134.695,79.076121Q134.786,79.03843,134.882,79.019215Q134.979,79,135.077,79L136.089,79Q136.188,79,136.284,79.019215Q136.381,79.03843,136.472,79.076121Q136.563,79.113812,136.645,79.16853Q136.727,79.223249,136.796,79.292893Q136.866,79.362537,136.921,79.44443Q136.975,79.526322,137.013,79.617317Q137.051,79.708311,137.07,79.80491Q137.089,79.9015086,137.089,80Q137.089,80.0984914,137.07,80.19509Q137.051,80.291689,137.013,80.382683Q136.975,80.473678,136.921,80.55557Q136.866,80.637463,136.796,80.707107Q136.727,80.776751,136.645,80.83147Q136.563,80.886188,136.472,80.923879Q136.381,80.96157,136.284,80.980785Q136.188,81,136.089,81ZM129.006,81L127.994,81Q127.896,81,127.799,80.980785Q127.702,80.96157,127.611,80.923879Q127.52,80.886188,127.438,80.83147Q127.357,80.776751,127.287,80.707107Q127.217,80.637463,127.163,80.55557Q127.108,80.473678,127.07,80.382683Q127.032,80.291689,127.013,80.19509Q126.994,80.0984914,126.994,80Q126.994,79.9015086,127.013,79.80491Q127.032,79.708311,127.07,79.617317Q127.108,79.526322,127.163,79.44443Q127.217,79.362537,127.287,79.292893Q127.357,79.223249,127.438,79.16853Q127.52,79.113812,127.611,79.076121Q127.702,79.03843,127.799,79.019215Q127.896,79,127.994,79L129.006,79Q129.104,79,129.201,79.019215Q129.298,79.03843,129.389,79.076121Q129.48,79.113812,129.561,79.16853Q129.643,79.223249,129.713,79.292893Q129.783,79.362537,129.837,79.44443Q129.892,79.526322,129.93,79.617317Q129.967,79.708311,129.987,79.80491Q130.006,79.9015086,130.006,80Q130.006,80.0984914,129.987,80.19509Q129.967,80.291689,129.93,80.382683Q129.892,80.473678,129.837,80.55557Q129.783,80.637463,129.713,80.707107Q129.643,80.776751,129.561,80.83147Q129.48,80.886188,129.389,80.923879Q129.298,80.96157,129.201,80.980785Q129.104,81,129.006,81ZM121.923,81L120.911,81Q120.812,81,120.716,80.980785Q120.619,80.96157,120.528,80.923879Q120.437,80.886188,120.355,80.83147Q120.273,80.776751,120.204,80.707107Q120.134,80.637463,120.079,80.55557Q120.025,80.473678,119.987,80.382683Q119.949,80.291689,119.93,80.19509Q119.911,80.0984914,119.911,80Q119.911,79.9015086,119.93,79.80491Q119.949,79.708311,119.987,79.617317Q120.025,79.526322,120.079,79.44443Q120.134,79.362537,120.204,79.292893Q120.273,79.223249,120.355,79.16853Q120.437,79.113812,120.528,79.076121Q120.619,79.03843,120.716,79.019215Q120.812,79,120.911,79L121.923,79Q122.021,79,122.118,79.019215Q122.214,79.03843,122.305,79.076121Q122.396,79.113812,122.478,79.16853Q122.56,79.223249,122.63,79.292893Q122.699,79.362537,122.754,79.44443Q122.809,79.526322,122.846,79.617317Q122.884,79.708311,122.903,79.80491Q122.923,79.9015086,122.923,80Q122.923,80.0984914,122.903,80.19509Q122.884,80.291689,122.846,80.382683Q122.809,80.473678,122.754,80.55557Q122.699,80.637463,122.63,80.707107Q122.56,80.776751,122.478,80.83147Q122.396,80.886188,122.305,80.923879Q122.214,80.96157,122.118,80.980785Q122.021,81,121.923,81ZM114.839,81L113.827,81Q113.729,81,113.632,80.980785Q113.536,80.96157,113.445,80.923879Q113.354,80.886188,113.272,80.83147Q113.19,80.776751,113.12,80.707107Q113.051,80.637463,112.996,80.55557Q112.941,80.473678,112.903,80.382683Q112.866,80.291689,112.847,80.19509Q112.827,80.0984914,112.827,80Q112.827,79.9015086,112.847,79.80491Q112.866,79.708311,112.903,79.617317Q112.941,79.526322,112.996,79.44443Q113.051,79.362537,113.12,79.292893Q113.19,79.223249,113.272,79.16853Q113.354,79.113812,113.445,79.076121Q113.536,79.03843,113.632,79.019215Q113.729,79,113.827,79L114.839,79Q114.938,79,115.034,79.019215Q115.131,79.03843,115.222,79.076121Q115.313,79.113812,115.395,79.16853Q115.477,79.223249,115.546,79.292893Q115.616,79.362537,115.671,79.44443Q115.725,79.526322,115.763,79.617317Q115.801,79.708311,115.82,79.80491Q115.839,79.9015086,115.839,80Q115.839,80.0984914,115.82,80.19509Q115.801,80.291689,115.763,80.382683Q115.725,80.473678,115.671,80.55557Q115.616,80.637463,115.546,80.707107Q115.477,80.776751,115.395,80.83147Q115.313,80.886188,115.222,80.923879Q115.131,80.96157,115.034,80.980785Q114.938,81,114.839,81ZM107.756,81L106.744,81Q106.646,81,106.549,80.980785Q106.452,80.96157,106.361,80.923879Q106.27,80.886188,106.188,80.83147Q106.107,80.776751,106.037,80.707107Q105.967,80.637463,105.913,80.55557Q105.858,80.473678,105.82,80.382683Q105.782,80.291689,105.763,80.19509Q105.744,80.0984914,105.744,80Q105.744,79.9015086,105.763,79.80491Q105.782,79.708311,105.82,79.617317Q105.858,79.526322,105.913,79.44443Q105.967,79.362537,106.037,79.292893Q106.107,79.223249,106.188,79.16853Q106.27,79.113812,106.361,79.076121Q106.452,79.03843,106.549,79.019215Q106.646,79,106.744,79L107.756,79Q107.854,79,107.951,79.019215Q108.048,79.03843,108.139,79.076121Q108.23,79.113812,108.312,79.16853Q108.393,79.223249,108.463,79.292893Q108.533,79.362537,108.587,79.44443Q108.642,79.526322,108.68,79.617317Q108.718,79.708311,108.737,79.80491Q108.756,79.9015086,108.756,80Q108.756,80.0984914,108.737,80.19509Q108.718,80.291689,108.68,80.382683Q108.642,80.473678,108.587,80.55557Q108.533,80.637463,108.463,80.707107Q108.393,80.776751,108.312,80.83147Q108.23,80.886188,108.139,80.923879Q108.048,80.96157,107.951,80.980785Q107.854,81,107.756,81ZM100.6726,81L99.6607,81Q99.5622,81,99.4656,80.980785Q99.369,80.96157,99.278,80.923879Q99.187,80.886188,99.1051,80.83147Q99.0233,80.776751,98.9536,80.707107Q98.884,80.637463,98.8292,80.55557Q98.7745,80.473678,98.7368,80.382683Q98.6991,80.291689,98.6799,80.19509Q98.6607,80.0984914,98.6607,80Q98.6607,79.9015086,98.6799,79.80491Q98.6991,79.708311,98.7368,79.617317Q98.7745,79.526322,98.8292,79.44443Q98.884,79.362537,98.9536,79.292893Q99.0233,79.223249,99.1051,79.16853Q99.187,79.113812,99.278,79.076121Q99.369,79.03843,99.4656,79.019215Q99.5622,79,99.6607,79L100.6726,79Q100.7711,79,100.8677,79.019215Q100.9643,79.03843,101.055,79.076121Q101.146,79.113812,101.228,79.16853Q101.31,79.223249,101.38,79.292893Q101.449,79.362537,101.504,79.44443Q101.559,79.526322,101.596,79.617317Q101.634,79.708311,101.653,79.80491Q101.673,79.9015086,101.673,80Q101.673,80.0984914,101.653,80.19509Q101.634,80.291689,101.596,80.382683Q101.559,80.473678,101.504,80.55557Q101.449,80.637463,101.38,80.707107Q101.31,80.776751,101.228,80.83147Q101.146,80.886188,101.055,80.923879Q100.9643,80.96157,100.8677,80.980785Q100.7711,81,100.6726,81ZM93.5893,81L92.5774,81Q92.4789,81,92.3823,80.980785Q92.2857,80.96157,92.1947,80.923879Q92.1037,80.886188,92.0218,80.83147Q91.9399,80.776751,91.8703,80.707107Q91.8006,80.637463,91.7459,80.55557Q91.6912,80.473678,91.6535,80.382683Q91.6158,80.291689,91.5966,80.19509Q91.5774,80.0984914,91.5774,80Q91.5774,79.9015086,91.5966,79.80491Q91.6158,79.708311,91.6535,79.617317Q91.6912,79.526322,91.7459,79.44443Q91.8006,79.362537,91.8703,79.292893Q91.9399,79.223249,92.0218,79.16853Q92.1037,79.113812,92.1947,79.076121Q92.2857,79.03843,92.3823,79.019215Q92.4789,79,92.5774,79L93.5893,79Q93.6878,79,93.7844,79.019215Q93.881,79.03843,93.972,79.076121Q94.063,79.113812,94.1449,79.16853Q94.2267,79.223249,94.2964,79.292893Q94.366,79.362537,94.4207,79.44443Q94.4755,79.526322,94.5132,79.617317Q94.5508,79.708311,94.5701,79.80491Q94.5893,79.9015086,94.5893,80Q94.5893,80.0984914,94.5701,80.19509Q94.5508,80.291689,94.5132,80.382683Q94.4755,80.473678,94.4207,80.55557Q94.366,80.637463,94.2964,80.707107Q94.2267,80.776751,94.1449,80.83147Q94.063,80.886188,93.972,80.923879Q93.881,80.96157,93.7844,80.980785Q93.6878,81,93.5893,81ZM86.506,81L85.494,81Q85.3955,81,85.299,80.980785Q85.2023,80.96157,85.1114,80.923879Q85.0204,80.886188,84.9385,80.83147Q84.8566,80.776751,84.7869,80.707107Q84.7173,80.637463,84.6626,80.55557Q84.6078,80.473678,84.5702,80.382683Q84.5325,80.291689,84.5133,80.19509Q84.494,80.0984914,84.494,80Q84.494,79.9015086,84.5133,79.80491Q84.5325,79.708311,84.5702,79.617317Q84.6078,79.526322,84.6626,79.44443Q84.7173,79.362537,84.7869,79.292893Q84.8566,79.223249,84.9385,79.16853Q85.0204,79.113812,85.1114,79.076121Q85.2023,79.03843,85.299,79.019215Q85.3955,79,85.494,79L86.506,79Q86.6044,79,86.701,79.019215Q86.7976,79.03843,86.8886,79.076121Q86.9796,79.113812,87.0615,79.16853Q87.1434,79.223249,87.2131,79.292893Q87.2827,79.362537,87.3374,79.44443Q87.3921,79.526322,87.4298,79.617317Q87.4675,79.708311,87.4867,79.80491Q87.506,79.9015086,87.506,80Q87.506,80.0984914,87.4867,80.19509Q87.4675,80.291689,87.4298,80.382683Q87.3922,80.473678,87.3374,80.55557Q87.2827,80.637463,87.2131,80.707107Q87.1434,80.776751,87.0615,80.83147Q86.9796,80.886188,86.8886,80.923879Q86.7976,80.96157,86.701,80.980785Q86.6044,81,86.506,81ZM79.4226,81L78.4107,81Q78.3122,81,78.2156,80.980785Q78.119,80.96157,78.028,80.923879Q77.937,80.886188,77.8551,80.83147Q77.7732,80.776751,77.7036,80.707107Q77.634,80.637463,77.5792,80.55557Q77.5245,80.473678,77.4868,80.382683Q77.4491,80.291689,77.4299,80.19509Q77.4107,80.0984914,77.4107,80Q77.4107,79.9015086,77.4299,79.80491Q77.4491,79.708311,77.4868,79.617317Q77.5245,79.526322,77.5792,79.44443Q77.634,79.362537,77.7036,79.292893Q77.7732,79.223249,77.8551,79.16853Q77.937,79.113812,78.028,79.076121Q78.119,79.03843,78.2156,79.019215Q78.3122,79,78.4107,79L79.4226,79Q79.5211,79,79.6177,79.019215Q79.7143,79.03843,79.8053,79.076121Q79.8963,79.113812,79.9782,79.16853Q80.0601,79.223249,80.1297,79.292893Q80.1994,79.362537,80.2541,79.44443Q80.3088,79.526322,80.3465,79.617317Q80.3842,79.708311,80.4034,79.80491Q80.4226,79.9015086,80.4226,80Q80.4226,80.0984914,80.4034,80.19509Q80.3842,80.291689,80.3465,80.382683Q80.3088,80.473678,80.2541,80.55557Q80.1994,80.637463,80.1297,80.707107Q80.0601,80.776751,79.9782,80.83147Q79.8963,80.886188,79.8053,80.923879Q79.7143,80.96157,79.6177,80.980785Q79.5211,81,79.4226,81ZM72.3393,81L71.3274,81Q71.2289,81,71.1323,80.980785Q71.0357,80.96157,70.9447,80.923879Q70.8537,80.886188,70.7718,80.83147Q70.6899,80.776751,70.6203,80.707107Q70.5506,80.637463,70.4959,80.55557Q70.4412,80.473678,70.4035,80.382683Q70.3658,80.291689,70.3466,80.19509Q70.3274,80.0984914,70.3274,80Q70.3274,79.9015086,70.3466,79.80491Q70.3658,79.708311,70.4035,79.617317Q70.4412,79.526322,70.4959,79.44443Q70.5506,79.362537,70.6203,79.292893Q70.6899,79.223249,70.7718,79.16853Q70.8537,79.113812,70.9447,79.076121Q71.0357,79.03843,71.1323,79.019215Q71.2289,79,71.3274,79L72.3393,79Q72.4378,79,72.5344,79.019215Q72.631,79.03843,72.722,79.076121Q72.813,79.113812,72.8949,79.16853Q72.9767,79.223249,73.0464,79.292893Q73.116,79.362537,73.1707,79.44443Q73.2255,79.526322,73.2632,79.617317Q73.3008,79.708311,73.3201,79.80491Q73.3393,79.9015086,73.3393,80Q73.3393,80.0984914,73.3201,80.19509Q73.3008,80.291689,73.2632,80.382683Q73.2255,80.473678,73.1707,80.55557Q73.116,80.637463,73.0464,80.707107Q72.9767,80.776751,72.8949,80.83147Q72.813,80.886188,72.722,80.923879Q72.631,80.96157,72.5344,80.980785Q72.4378,81,72.3393,81ZM65.256,81L64.244,81Q64.1456,81,64.049,80.980785Q63.9524,80.96157,63.8614,80.923879Q63.7704,80.886188,63.6885,80.83147Q63.6066,80.776751,63.5369,80.707107Q63.4673,80.637463,63.4126,80.55557Q63.3578,80.473678,63.3202,80.382683Q63.2825,80.291689,63.2633,80.19509Q63.244,80.0984914,63.244,80Q63.244,79.9015086,63.2633,79.80491Q63.2825,79.708311,63.3202,79.617317Q63.3578,79.526322,63.4126,79.44443Q63.4673,79.362537,63.5369,79.292893Q63.6066,79.223249,63.6885,79.16853Q63.7704,79.113812,63.8614,79.076121Q63.9524,79.03843,64.049,79.019215Q64.1456,79,64.244,79L65.256,79Q65.3544,79,65.451,79.019215Q65.5476,79.03843,65.6386,79.076121Q65.7296,79.113812,65.8115,79.16853Q65.8934,79.223249,65.9631,79.292893Q66.0327,79.362537,66.0874,79.44443Q66.1421,79.526322,66.1798,79.617317Q66.2175,79.708311,66.2367,79.80491Q66.256,79.9015086,66.256,80Q66.256,80.0984914,66.2367,80.19509Q66.2175,80.291689,66.1798,80.382683Q66.1421,80.473678,66.0874,80.55557Q66.0327,80.637463,65.9631,80.707107Q65.8934,80.776751,65.8115,80.83147Q65.7296,80.886188,65.6386,80.923879Q65.5476,80.96157,65.451,80.980785Q65.3544,81,65.256,81ZM58.1726,81L57.1607,81Q57.0622,81,56.9656,80.980785Q56.869,80.96157,56.778,80.923879Q56.687,80.886188,56.6051,80.83147Q56.5233,80.776751,56.4536,80.707107Q56.384,80.637463,56.3292,80.55557Q56.2745,80.473678,56.2368,80.382683Q56.1991,80.291689,56.1799,80.19509Q56.1607,80.0984914,56.1607,80Q56.1607,79.9015086,56.1799,79.80491Q56.1991,79.708311,56.2368,79.617317Q56.2745,79.526322,56.3292,79.44443Q56.384,79.362537,56.4536,79.292893Q56.5233,79.223249,56.6051,79.16853Q56.687,79.113812,56.778,79.076121Q56.869,79.03843,56.9656,79.019215Q57.0622,79,57.1607,79L58.1726,79Q58.2711,79,58.3677,79.019215Q58.4643,79.03843,58.5553,79.076121Q58.6463,79.113812,58.7282,79.16853Q58.8101,79.223249,58.8797,79.292893Q58.9494,79.362537,59.0041,79.44443Q59.0588,79.526322,59.0965,79.617317Q59.1342,79.708311,59.1534,79.80491Q59.1726,79.9015086,59.1726,80Q59.1726,80.0984914,59.1534,80.19509Q59.1342,80.291689,59.0965,80.382683Q59.0588,80.473678,59.0041,80.55557Q58.9494,80.637463,58.8797,80.707107Q58.8101,80.776751,58.7282,80.83147Q58.6463,80.886188,58.5553,80.923879Q58.4643,80.96157,58.3677,80.980785Q58.2711,81,58.1726,81ZM51.0893,81L50.0774,81Q49.9789,81,49.8823,80.980785Q49.7857,80.96157,49.6947,80.923879Q49.6037,80.886188,49.5218,80.83147Q49.4399,80.776751,49.3703,80.707107Q49.3006,80.637463,49.2459,80.55557Q49.1912,80.473678,49.1535,80.382683Q49.1158,80.291689,49.0966,80.19509Q49.0774,80.0984914,49.0774,80Q49.0774,79.9015086,49.0966,79.80491Q49.1158,79.708311,49.1535,79.617317Q49.1912,79.526322,49.2459,79.44443Q49.3006,79.362537,49.3703,79.292893Q49.4399,79.223249,49.5218,79.16853Q49.6037,79.113812,49.6947,79.076121Q49.7857,79.03843,49.8823,79.019215Q49.9789,79,50.0774,79L51.0893,79Q51.1878,79,51.2844,79.019215Q51.381,79.03843,51.472,79.076121Q51.563,79.113812,51.6449,79.16853Q51.7268,79.223249,51.7964,79.292893Q51.866,79.362537,51.9208,79.44443Q51.9755,79.526322,52.0132,79.617317Q52.0509,79.708311,52.0701,79.80491Q52.0893,79.9015086,52.0893,80Q52.0893,80.0984914,52.0701,80.19509Q52.0509,80.291689,52.0132,80.382683Q51.9755,80.473678,51.9208,80.55557Q51.866,80.637463,51.7964,80.707107Q51.7268,80.776751,51.6449,80.83147Q51.563,80.886188,51.472,80.923879Q51.381,80.96157,51.2844,80.980785Q51.1878,81,51.0893,81ZM44.006,81L42.994,81Q42.8956,81,42.799,80.980785Q42.7024,80.96157,42.6114,80.923879Q42.5204,80.886188,42.4385,80.83147Q42.3566,80.776751,42.2869,80.707107Q42.2173,80.637463,42.1626,80.55557Q42.1079,80.473678,42.0702,80.382683Q42.0325,80.291689,42.0133,80.19509Q41.994,80.0984914,41.994,80Q41.994,79.9015086,42.0133,79.80491Q42.0325,79.708311,42.0702,79.617317Q42.1079,79.526322,42.1626,79.44443Q42.2173,79.362537,42.2869,79.292893Q42.3566,79.223249,42.4385,79.16853Q42.5204,79.113812,42.6114,79.076121Q42.7024,79.03843,42.799,79.019215Q42.8956,79,42.994,79L44.006,79Q44.1045,79,44.201,79.019215Q44.2976,79.03843,44.3886,79.076121Q44.4796,79.113812,44.5615,79.16853Q44.6434,79.223249,44.7131,79.292893Q44.7827,79.362537,44.8374,79.44443Q44.8921,79.526322,44.9298,79.617317Q44.9675,79.708311,44.9867,79.80491Q45.006,79.9015086,45.006,80Q45.006,80.0984914,44.9867,80.19509Q44.9675,80.291689,44.9298,80.382683Q44.8921,80.473678,44.8374,80.55557Q44.7827,80.637463,44.7131,80.707107Q44.6434,80.776751,44.5615,80.83147Q44.4796,80.886188,44.3886,80.923879Q44.2976,80.96157,44.201,80.980785Q44.1045,81,44.006,81ZM36.9226,81L35.9107,81Q35.8122,81,35.7156,80.980785Q35.619,80.96157,35.528,80.923879Q35.437,80.886188,35.3551,80.83147Q35.2733,80.776751,35.2036,80.707107Q35.134,80.637463,35.0792,80.55557Q35.0245,80.473678,34.9868,80.382683Q34.9491,80.291689,34.9299,80.19509Q34.9107,80.0984914,34.9107,80Q34.9107,79.9015086,34.9299,79.80491Q34.9491,79.708311,34.9868,79.617317Q35.0245,79.526322,35.0792,79.44443Q35.134,79.362537,35.2036,79.292893Q35.2733,79.223249,35.3551,79.16853Q35.437,79.113812,35.528,79.076121Q35.619,79.03843,35.7156,79.019215Q35.8122,79,35.9107,79L36.9226,79Q37.0211,79,37.1177,79.019215Q37.2143,79.03843,37.3053,79.076121Q37.3963,79.113812,37.4782,79.16853Q37.5601,79.223249,37.6297,79.292893Q37.6994,79.362537,37.7541,79.44443Q37.8088,79.526322,37.8465,79.617317Q37.8842,79.708311,37.9034,79.80491Q37.9226,79.9015086,37.9226,80Q37.9226,80.0984914,37.9034,80.19509Q37.8842,80.291689,37.8465,80.382683Q37.8088,80.473678,37.7541,80.55557Q37.6994,80.637463,37.6297,80.707107Q37.5601,80.776751,37.4782,80.83147Q37.3963,80.886188,37.3053,80.923879Q37.2143,80.96157,37.1177,80.980785Q37.0211,81,36.9226,81ZM29.8393,81L28.8274,81Q28.7289,81,28.6323,80.980785Q28.5357,80.96157,28.4447,80.923879Q28.3537,80.886188,28.2718,80.83147Q28.1899,80.776751,28.1203,80.707107Q28.0506,80.637463,27.9959,80.55557Q27.9412,80.473678,27.9035,80.382683Q27.8658,80.291689,27.8466,80.19509Q27.8274,80.0984914,27.8274,80Q27.8274,79.9015086,27.8466,79.80491Q27.8658,79.708311,27.9035,79.617317Q27.9412,79.526322,27.9959,79.44443Q28.0506,79.362537,28.1203,79.292893Q28.1899,79.223249,28.2718,79.16853Q28.3537,79.113812,28.4447,79.076121Q28.5357,79.03843,28.6323,79.019215Q28.7289,79,28.8274,79L29.8393,79Q29.9378,79,30.0344,79.019215Q30.131,79.03843,30.222,79.076121Q30.313,79.113812,30.3949,79.16853Q30.4768,79.223249,30.5464,79.292893Q30.616,79.362537,30.6708,79.44443Q30.7255,79.526322,30.7632,79.617317Q30.8009,79.708311,30.8201,79.80491Q30.8393,79.9015086,30.8393,80Q30.8393,80.0984914,30.8201,80.19509Q30.8009,80.291689,30.7632,80.382683Q30.7255,80.473678,30.6708,80.55557Q30.616,80.637463,30.5464,80.707107Q30.4768,80.776751,30.3949,80.83147Q30.313,80.886188,30.222,80.923879Q30.131,80.96157,30.0344,80.980785Q29.9378,81,29.8393,81ZM22.756,81L21.744,81Q21.6456,81,21.549,80.980785Q21.4524,80.96157,21.3614,80.923879Q21.2704,80.886188,21.1885,80.83147Q21.1066,80.776751,21.0369,80.707107Q20.9673,80.637463,20.9126,80.55557Q20.8579,80.473678,20.8202,80.382683Q20.7825,80.291689,20.7633,80.19509Q20.744,80.0984914,20.744,80Q20.744,79.9015086,20.7633,79.80491Q20.7825,79.708311,20.8202,79.617317Q20.8579,79.526322,20.9126,79.44443Q20.9673,79.362537,21.0369,79.292893Q21.1066,79.223249,21.1885,79.16853Q21.2704,79.113812,21.3614,79.076121Q21.4524,79.03843,21.549,79.019215Q21.6456,79,21.744,79L22.756,79Q22.8545,79,22.9511,79.019215Q23.0477,79.03843,23.1386,79.076121Q23.2296,79.113812,23.3115,79.16853Q23.3934,79.223249,23.4631,79.292893Q23.5327,79.362537,23.5874,79.44443Q23.6421,79.526322,23.6798,79.617317Q23.7175,79.708311,23.7367,79.80491Q23.756,79.9015086,23.756,80Q23.756,80.0984914,23.7368,80.19509Q23.7175,80.291689,23.6798,80.382683Q23.6422,80.473678,23.5874,80.55557Q23.5327,80.637463,23.4631,80.707107Q23.3934,80.776751,23.3115,80.83147Q23.2296,80.886188,23.1386,80.923879Q23.0477,80.96157,22.9511,80.980785Q22.8545,81,22.756,81ZM15.6726,81L14.6607,81Q14.5622,81,14.4656,80.980785Q14.369,80.96157,14.278,80.923879Q14.187,80.886188,14.1051,80.83147Q14.0233,80.776751,13.9536,80.707107Q13.884,80.637463,13.8292,80.55557Q13.7745,80.473678,13.7368,80.382683Q13.6991,80.291689,13.6799,80.19509Q13.6607,80.0984914,13.6607,80Q13.6607,79.9015086,13.6799,79.80491Q13.6991,79.708311,13.7368,79.617317Q13.7745,79.526322,13.8292,79.44443Q13.884,79.362537,13.9536,79.292893Q14.0233,79.223249,14.1051,79.16853Q14.187,79.113812,14.278,79.076121Q14.369,79.03843,14.4656,79.019215Q14.5622,79,14.6607,79L15.6726,79Q15.7711,79,15.8677,79.019215Q15.9643,79.03843,16.055300000000003,79.076121Q16.1463,79.113812,16.2282,79.16853Q16.3101,79.223249,16.3797,79.292893Q16.4494,79.362537,16.5041,79.44443Q16.558799999999998,79.526322,16.5965,79.617317Q16.6342,79.708311,16.653399999999998,79.80491Q16.6726,79.9015086,16.6726,80Q16.6726,80.0984914,16.653399999999998,80.19509Q16.6342,80.291689,16.5965,80.382683Q16.558799999999998,80.473678,16.5041,80.55557Q16.4494,80.637463,16.3797,80.707107Q16.3101,80.776751,16.2282,80.83147Q16.1463,80.886188,16.055300000000003,80.923879Q15.9643,80.96157,15.8677,80.980785Q15.7711,81,15.6726,81ZM8.58929,81L7.57739,81Q7.4789,81,7.3823,80.980785Q7.2857,80.96157,7.19471,80.923879Q7.10371,80.886188,7.02182,80.83147Q6.93993,80.776751,6.87029,80.707107Q6.80064,80.637463,6.74592,80.55557Q6.6912,80.473678,6.65351,80.382683Q6.61582,80.291689,6.59661,80.19509Q6.57739,80.0984914,6.57739,80Q6.57739,79.9015086,6.59661,79.80491Q6.61582,79.708311,6.65351,79.617317Q6.6912,79.526322,6.74592,79.44443Q6.80064,79.362537,6.87029,79.292893Q6.93993,79.223249,7.02182,79.16853Q7.10371,79.113812,7.19471,79.076121Q7.2857,79.03843,7.3823,79.019215Q7.4789,79,7.57739,79L8.58929,79Q8.68779,79,8.784379999999999,79.019215Q8.880980000000001,79.03843,8.97198,79.076121Q9.06297,79.113812,9.14486,79.16853Q9.22676,79.223249,9.2964,79.292893Q9.36604,79.362537,9.42076,79.44443Q9.47548,79.526322,9.51317,79.617317Q9.55086,79.708311,9.57008,79.80491Q9.58929,79.9015086,9.58929,80Q9.58929,80.0984914,9.57008,80.19509Q9.55086,80.291689,9.51317,80.382683Q9.47548,80.473678,9.42076,80.55557Q9.36604,80.637463,9.2964,80.707107Q9.22676,80.776751,9.14486,80.83147Q9.06297,80.886188,8.97198,80.923879Q8.880980000000001,80.96157,8.784379999999999,80.980785Q8.68779,81,8.58929,81ZM1.505966,81L1,81Q1,81,1,80.980785Q1,80.96157,1,80.923879Q1,80.886188,1,80.83147Q1,80.776751,1,80.707107Q1,80.637463,1,80.55557Q1,80.473678,1,80.382683Q1,80.291689,1,80.19509Q1,80.0984914,1,80Q1,79.9015086,1,79.80491Q1,79.708311,1,79.617317Q1,79.526322,1,79.44443Q1,79.362537,1,79.292893Q1,79.223249,1,79.16853Q1,79.113812,1,79.076121Q1,79.03843,1,79.019215Q1,79,1,79L1.505966,79Q1.6044580000000002,79,1.701056,79.019215Q1.797655,79.03843,1.8886500000000002,79.076121Q1.979644,79.113812,2.06154,79.16853Q2.14343,79.223249,2.21307,79.292893Q2.2827200000000003,79.362537,2.33744,79.44443Q2.39215,79.526322,2.42985,79.617317Q2.46754,79.708311,2.48675,79.80491Q2.50597,79.9015086,2.50597,80Q2.50597,80.0984914,2.48675,80.19509Q2.46754,80.291689,2.42985,80.382683Q2.39215,80.473678,2.33744,80.55557Q2.2827200000000003,80.637463,2.21307,80.707107Q2.14343,80.776751,2.06154,80.83147Q1.979644,80.886188,1.8886500000000002,80.923879Q1.797655,80.96157,1.701056,80.980785Q1.6044580000000002,81,1.505966,81ZM172,80Q172,80.0984914,171.981,80.19509Q171.962,80.291689,171.924,80.382683Q171.886,80.473678,171.831,80.55557Q171.777,80.637463,171.707,80.707107Q171.637,80.776751,171.556,80.83147Q171.474,80.886188,171.383,80.923879Q171.292,80.96157,171.195,80.980785Q171.098,81,171,81Q170.902,81,170.805,80.980785Q170.708,80.96157,170.617,80.923879Q170.526,80.886188,170.444,80.83147Q170.363,80.776751,170.293,80.707107Q170.223,80.637463,170.169,80.55557Q170.114,80.473678,170.076,80.382683Q170.038,80.291689,170.019,80.19509Q170,80.0984914,170,80Q170,79.9015086,170.019,79.80491Q170.038,79.708311,170.076,79.617317Q170.114,79.526322,170.169,79.44443Q170.223,79.362537,170.293,79.292893Q170.363,79.223249,170.444,79.16853Q170.526,79.113812,170.617,79.076121Q170.708,79.03843,170.805,79.019215Q170.902,79,171,79Q171.098,79,171.195,79.019215Q171.292,79.03843,171.383,79.076121Q171.474,79.113812,171.556,79.16853Q171.637,79.223249,171.707,79.292893Q171.777,79.362537,171.831,79.44443Q171.886,79.526322,171.924,79.617317Q171.962,79.708311,171.981,79.80491Q172,79.9015086,172,80ZM2,80Q2,80.0984914,1.980785,80.19509Q1.96157,80.291689,1.923879,80.382683Q1.886188,80.473678,1.83147,80.55557Q1.776751,80.637463,1.7071070000000002,80.707107Q1.637463,80.776751,1.55557,80.83147Q1.473678,80.886188,1.382683,80.923879Q1.2916889999999999,80.96157,1.19509,80.980785Q1.0984914,81,1,81Q0.9015086,81,0.80491,80.980785Q0.708311,80.96157,0.617317,80.923879Q0.526322,80.886188,0.44443,80.83147Q0.362537,80.776751,0.29289299999999996,80.707107Q0.22324900000000003,80.637463,0.16852999999999996,80.55557Q0.11381200000000002,80.473678,0.076121,80.382683Q0.038429999999999964,80.291689,0.019214999999999982,80.19509Q0,80.0984914,0,80Q0,79.9015086,0.019214999999999982,79.80491Q0.038429999999999964,79.708311,0.076121,79.617317Q0.11381200000000002,79.526322,0.16852999999999996,79.44443Q0.22324900000000003,79.362537,0.29289299999999996,79.292893Q0.362537,79.223249,0.44443,79.16853Q0.526322,79.113812,0.617317,79.076121Q0.708311,79.03843,0.80491,79.019215Q0.9015086,79,1,79Q1.0984914,79,1.19509,79.019215Q1.2916889999999999,79.03843,1.382683,79.076121Q1.473678,79.113812,1.55557,79.16853Q1.637463,79.223249,1.7071070000000002,79.292893Q1.776751,79.362537,1.83147,79.44443Q1.886188,79.526322,1.923879,79.617317Q1.96157,79.708311,1.980785,79.80491Q2,79.9015086,2,80Z" fill="#1CC198" fill-opacity="1"/></g></g><g clip-path="url(#master_svg0_275_7573)"><g style="opacity:0;"><rect x="66" y="59" width="40" height="40" rx="0" fill="#FFFFFF" fill-opacity="1"/></g><g><ellipse cx="86.05002784729004" cy="79.00000953674316" rx="16.66666603088379" ry="16.66666603088379" fill="#1CC198" fill-opacity="1"/></g><g><path d="M83.683313359375,84.96670478515625C83.351903359375,84.96640478515624,83.034173359375,84.83450478515626,82.799973359375,84.60000478515624L78.083310359375,79.88335478515626C77.586487359375,79.39925478515624,77.586487359375,78.60078478515625,78.083310359375,78.11668478515625C78.571340359375,77.62926478515625,79.361943359375,77.62926478515625,79.849973359375,78.11668478515625L83.683313359375,81.95002478515624L92.249993359375,73.40001978515625C92.734093359375,72.90319978515625,93.532493359375,72.90319978515625,94.01659335937501,73.40001978515625C94.50409335937499,73.88804778515625,94.50409335937499,74.67865478515625,94.01659335937501,75.16668478515625L84.566643359375,84.60000478515624C84.332443359375,84.83450478515626,84.014713359375,84.96640478515624,83.683313359375,84.96670478515625Z" fill="#FFFFFF" fill-opacity="1"/></g></g></g></svg>