<svg xmlns="http://www.w3.org/2000/svg" xmlns:xlink="http://www.w3.org/1999/xlink" fill="none" version="1.1" width="23.999998092651367" height="26.999998092651367" viewBox="0 0 23.999998092651367 26.999998092651367"><defs><clipPath id="master_svg0_275_25126"><rect x="0" y="0" width="23.999998092651367" height="26.999998092651367" rx="0"/></clipPath></defs><g style="mix-blend-mode:passthrough" clip-path="url(#master_svg0_275_25126)"><g style="mix-blend-mode:passthrough"><path d="M12,4.5C14.969,4.578,17.4417,5.60525,19.4182,7.5817499999999995C21.3948,9.558250000000001,22.422,12.030999999999999,22.5,15C22.422,17.969,21.3948,20.4417,19.4182,22.4182C17.4417,24.3948,14.969,25.422,12,25.5C9.030999999999999,25.422,6.55825,24.3948,4.5817499999999995,22.4182C2.60525,20.4417,1.578,17.969,1.5,15C1.578,12.030999999999999,2.60525,9.558250000000001,4.5817499999999995,7.5817499999999995C6.55825,5.60525,9.030999999999999,4.578,12,4.5C12,4.5,12,4.5,12,4.5C12,4.5,12,4.5,12,4.5ZM13.5705,10.9455C13.977,10.9455,14.313,10.82449,14.5785,10.5825C14.844,10.340499999999999,14.9767,10.01625,14.9767,9.60975C14.9767,9.20325,14.844,8.87899,14.5785,8.637C14.313,8.395,13.981,8.274000000000001,13.5825,8.274000000000001C13.184,8.274000000000001,12.852,8.395,12.5865,8.637C12.321,8.87899,12.1882,9.20325,12.1882,9.60975C12.1882,10.01625,12.321,10.340499999999999,12.5865,10.5825C12.852,10.82449,13.1802,10.9455,13.5712,10.9455C13.5712,10.9455,13.5705,10.9455,13.5705,10.9455C13.5705,10.9455,13.5705,10.9455,13.5705,10.9455ZM13.8517,19.383C13.8517,19.289,13.8595,19.164,13.875,19.008C13.8905,18.852,13.8905,18.7035,13.875,18.5625C13.875,18.5625,12.633,19.992,12.633,19.992C12.508,20.1325,12.379,20.242,12.246,20.3205C12.113,20.398899999999998,11.9997,20.4225,11.9062,20.391C11.7657,20.328400000000002,11.7033,20.218899999999998,11.7188,20.0625C11.7188,20.0625,13.7812,13.5705,13.7812,13.5705C13.8592,13.13299,13.789,12.75799,13.5705,12.4455C13.352,12.133,13.0005,11.9455,12.516,11.883C11.969,11.898489999999999,11.37124,12.129,10.72275,12.5745C10.07425,13.02,9.50775,13.5865,9.02325,14.274C9.02325,14.274,9.02325,14.6257,9.02325,14.6257C9.00775,14.7822,9.00775,14.9307,9.02325,15.0712C9.02325,15.0712,10.26525,13.64175,10.26525,13.64175C10.39024,13.50124,10.51924,13.39174,10.65225,13.31325C10.78525,13.23475,10.89075,13.21125,10.96875,13.24275C11.12524,13.32075,11.17999,13.44574,11.133,13.61775C11.133,13.61775,9.09375,20.0865,9.09375,20.0865C8.98425,20.4769,9.039,20.8248,9.258,21.1297C9.477,21.4347,9.85975,21.6417,10.40625,21.7507C11.18775,21.7353,11.844,21.5088,12.375,21.0712C12.906,20.6337,13.3983,20.071199999999997,13.8517,19.383699999999997C13.8517,19.383699999999997,13.8517,19.383,13.8517,19.383C13.8517,19.383,13.8517,19.383,13.8517,19.383Z" fill="#0052D9" fill-opacity="1"/></g></g></svg>