<svg xmlns="http://www.w3.org/2000/svg" xmlns:xlink="http://www.w3.org/1999/xlink" fill="none" version="1.1" width="63.99998474121094" height="64" viewBox="0 0 63.99998474121094 64"><defs><clipPath id="master_svg0_311_8221/275_5846"><rect x="0" y="0" width="63.99998474121094" height="64" rx="0"/></clipPath></defs><g clip-path="url(#master_svg0_311_8221/275_5846)"><g><rect x="0" y="0" width="63.99998474121094" height="63.99999237060547" rx="31.99999237060547" fill="#0052D9" fill-opacity="1"/></g><g style="mix-blend-mode:passthrough"><g><path d="M30.110562561035156,45.63584445800781L20.586122561035157,40.059254458007814C19.820942561035157,39.61042445800781,19.349922561035157,38.78177445800781,19.350452561035155,37.885324458007815L19.350452561035155,37.19143445800781C19.350372561035158,36.29464445800781,18.878632561035158,35.46598645800781,18.112852561035155,35.017504458007814C16.462882561035155,34.051315458007814,14.400062561035156,35.259052458007815,14.400062561035156,37.19094445800781L14.400062561035156,40.78390445800781C14.400134514935155,41.680694458007814,14.871880561035157,42.50934445800781,15.637662561035157,42.95782445800781L27.635462561035155,49.98174445800781C29.284462561035156,50.94744445800781,31.345762561035155,49.742144458007814,31.348162561035156,47.81124445800781C31.348462561035156,46.91394445800781,30.876662561035157,46.08474445800781,30.110562561035156,45.63584445800781Z" fill="#6AFBCF" fill-opacity="1"/></g><g><path d="M29.960487915039064,23.275496870361327C28.33533691503906,24.229780870361328,28.33391691503906,26.62154087036133,29.95764791503906,27.577750870361328L43.515237915039066,35.563910870361326C44.26763791503906,36.00791087036133,44.730737915039064,36.827610870361326,44.73023791503906,37.71431087036133L44.73023791503906,38.021310870361326C44.73033791503906,38.908510870361326,44.26643791503906,39.72821087036132,43.51333791503906,40.17171087036132L34.15607791503906,45.684610870361325C33.40414791503906,46.12781087036133,32.94049791503906,46.94611087036132,32.93922791503906,47.83211087036133C32.93922791503906,49.744510870361324,34.96605791503906,50.94211087036133,36.58978791503906,49.98541087036133L48.38313791503906,43.03891087036133C49.13613791503906,42.59521087036133,49.60003791503907,41.77551087036133,49.60003791503907,40.88851087036133L49.60003791503907,34.84711087036133C49.599937915039064,33.96001087036133,49.13603791503906,33.14041087036133,48.38313791503906,32.69673087036133L32.39182791503906,23.276944870361326C31.639747915039063,22.833683870361327,30.71307791503906,22.833131870361328,29.960487915039064,23.275496870361327Z" fill="#6AFBCF" fill-opacity="1"/></g><g><path d="M20.485142561035154,23.96847626953125L29.843862561035156,18.45543626953125C30.596062561035158,18.01261626953125,31.059862561035157,17.19431626953125,31.060862561035155,16.30832626953125C31.063162561035156,14.39533426953125,29.033862561035157,13.19820426953125,27.410062561035154,14.15446026953125L15.616982561035156,21.10263626953125C14.863928561035156,21.54640626953125,14.400063282993155,22.36612626953125,14.400062561035156,23.25312626953125L14.400062561035156,29.29377626953125C14.400326798035156,30.18087626953125,14.864140561035157,31.00047626953125,15.616982561035156,31.44427626953125L31.609162561035156,40.86397626953125C32.361462561035154,41.30657626953125,33.28796256103516,41.30657626953125,34.04016256103516,40.86397626953125C35.66496256103515,39.909676269531246,35.66636256103516,37.51827626953125,34.04016256103516,36.56157626953125L20.485142561035154,28.57647626953125C19.732742561035156,28.13247626953125,19.269602561035157,27.31277626953125,19.270122561035155,26.425976269531247L19.270122561035155,26.118976269531252C19.269602561035157,25.23217626953125,19.732742561035156,24.41247626953125,20.485142561035154,23.96847626953125Z" fill="#FFFFFF" fill-opacity="1"/></g><g><path d="M33.9554470467675,16.32801626953125C33.9542163359375,17.22593626953125,34.3898483359375,18.05614626953125,35.0977743359375,18.50501626953125L43.8917843359375,24.081176269531248C44.5972443359375,24.530576269531252,45.0310443359375,25.35897626953125,45.0301443359375,26.25477626953125L45.0301443359375,26.94907626953125C45.0301443359375,27.84567626953125,45.4656443359375,28.67417626953125,46.1724443359375,29.12257626953125C47.6958443359375,30.08867626953125,49.5998443359375,28.88107626953125,49.5998443359375,26.94907626953125L49.5998443359375,23.35665626953125C49.5997443359375,22.460936269531253,49.1650443359375,21.63318626953125,48.4593443359375,21.18454626953125L37.3824443359375,14.15883026953125C35.8603643359375,13.19230626953125,33.9576672159375,14.39741126953125,33.9554470467675,16.32801626953125Z" fill="#FFFFFF" fill-opacity="1"/></g></g></g></svg>