<svg xmlns="http://www.w3.org/2000/svg" xmlns:xlink="http://www.w3.org/1999/xlink" fill="none" version="1.1" width="48" height="48" viewBox="0 0 48 48"><defs><clipPath id="master_svg0_311_8221/275_26221"><rect x="0" y="0" width="48" height="48" rx="0"/></clipPath></defs><g clip-path="url(#master_svg0_311_8221/275_26221)"><g style="opacity:0;"><rect x="0" y="0" width="48" height="48" rx="0" fill="#FFFFFF" fill-opacity="1"/></g><g><path d="M42,15.5L6,15.5C5.171573,15.5,4.5,14.82843,4.5,14C4.5,13.171574,5.171573,12.500000953674,6,12.5L42,12.5C42.8284,12.500000953674,43.5,13.171574,43.5,14C43.5,14.82843,42.8284,15.5,42,15.5Z" fill="#7F88B7" fill-opacity="1"/></g><g><path d="M42,25.5L6,25.5C5.171573,25.5,4.5,24.82843,4.5,24C4.5,23.171574,5.171573,22.5,6,22.5L42,22.5C42.8284,22.5,43.5,23.171574,43.5,24C43.5,24.82843,42.8284,25.5,42,25.5Z" fill="#7F88B7" fill-opacity="1"/></g><g><path d="M42,35.5L6,35.5C5.171573,35.5,4.5,34.82843,4.5,34C4.5,33.171574,5.171573,32.5,6,32.5L42,32.5C42.8284,32.5,43.5,33.171574,43.5,34C43.5,34.82843,42.8284,35.5,42,35.5Z" fill="#7F88B7" fill-opacity="1"/></g></g></svg>